Coordinates
version=1
nRows=27
nColumns=38
inDegrees=no

Units are S.I. units (second, meters, Newtons, ...)
If the header above contains a line with 'inDegrees', this indicates whether rotational values are in degrees (yes) or radians (no).

endheader
time	pelvis_tilt	pelvis_list	pelvis_rotation	pelvis_tx	pelvis_ty	pelvis_tz	hip_flexion_r	hip_adduction_r	hip_rotation_r	knee_angle_r	ankle_angle_r	subtalar_angle_r	mtp_angle_r	hip_flexion_l	hip_adduction_l	hip_rotation_l	knee_angle_l	ankle_angle_l	subtalar_angle_l	mtp_angle_l	lumbar_extension	lumbar_bending	lumbar_rotation	arm_flex_r	arm_add_r	arm_rot_r	elbow_flex_r	pro_sup_r	wrist_flex_r	wrist_dev_r	arm_flex_l	arm_add_l	arm_rot_l	elbow_flex_l	pro_sup_l	wrist_flex_l	wrist_dev_l
0	2.50756	1.37469	-0.817286	0.690271	-0.766448	0.970324	0.0351575	0.00206856	-0.380273	0.559043	0.137359	0	0	-0.424006	-0.139211	-0.25355	0.182827	-0.020852	0	0	-0.711183	0.147204	-0.0355288	1.02286	-0.593967	1.28607	0.87433	0.607172	0	0	0.607932	-0.456687	0.58836	1.34269	1.18912	0	0
0.01	2.48993	1.36894	-0.797421	0.690356	-0.761421	0.971492	0.0354079	0.00530165	-0.402137	0.544713	0.127278	0	0	-0.429753	-0.148008	-0.254357	0.183551	-0.0295963	0	0	-0.710949	0.156436	-0.0338005	1.01411	-0.596638	1.28851	0.881981	0.608421	0	0	0.594513	-0.459554	0.586403	1.34711	1.1913	0	0
0.02	2.54246	1.38658	-0.847588	0.690723	-0.754354	0.969058	0.0536354	-0.0155696	-0.394818	0.557972	0.146356	0	0	-0.429781	-0.129656	-0.245128	0.180856	-0.0366402	0	0	-0.693091	0.141376	-0.0473412	0.992538	-0.604128	1.28381	0.900509	0.608813	0	0	0.576898	-0.467038	0.590048	1.35507	1.19216	0	0
0.03	2.57344	1.39281	-0.875966	0.691028	-0.747858	0.968054	0.0580513	-0.0227363	-0.394749	0.550193	0.154813	0	0	-0.433652	-0.123602	-0.241952	0.181277	-0.0437263	0	0	-0.684409	0.136674	-0.0536444	0.975146	-0.612193	1.28084	0.918682	0.608763	0	0	0.560724	-0.471486	0.58913	1.36078	1.19018	0	0
0.04	2.52723	1.27641	-0.783182	0.686005	-0.742647	0.980872	-0.108026	0.110147	-0.439117	0.345695	0.0466759	0	0	-0.52221	-0.233233	-0.256374	0.178527	-0.0598856	0	0	-0.775348	0.242484	-0.0280121	0.982292	-0.630303	1.29077	0.945068	0.609711	0	0	0.553809	-0.463483	0.581378	1.36112	1.18954	0	0
0.05	2.53622	1.36801	-0.830962	0.691032	-0.737392	0.971137	0.012869	0.0197634	-0.403631	0.44185	0.117461	0	0	-0.453813	-0.152774	-0.248751	0.189317	-0.0604275	0	0	-0.6983	0.16501	-0.0446312	0.956802	-0.63129	1.28093	0.958754	0.614438	0	0	0.533246	-0.473209	0.581793	1.37117	1.18839	0	0
0.06	2.67939	1.31019	-0.934601	0.685759	-0.729241	0.978933	-0.0911147	0.0412597	-0.453237	0.36632	0.0864861	0	0	-0.523599	-0.175424	-0.227354	0.169082	-0.0914438	0	0	-0.756737	0.19999	-0.0637924	0.944833	-0.641156	1.27976	0.980125	0.619419	0	0	0.515384	-0.475424	0.577477	1.37877	1.19524	0	0
0.07	2.54148	1.37536	-0.83299	0.692324	-0.725703	0.969894	0.0186701	0.0195655	-0.402356	0.407581	0.114225	0	0	-0.452728	-0.152712	-0.243984	0.199422	-0.0750332	0	0	-0.687218	0.164813	-0.0474487	0.923254	-0.654397	1.26649	1.01065	0.624274	0	0	0.500079	-0.481786	0.577433	1.38894	1.19862	0	0
0.08	2.69941	1.37306	-0.987653	0.690305	-0.719673	0.972432	-0.00517084	-0.00906845	-0.410592	0.393216	0.117247	0	0	-0.482435	-0.124018	-0.225145	0.186274	-0.103522	0	0	-0.705255	0.150607	-0.0604335	0.911042	-0.66712	1.26241	1.03456	0.628179	0	0	0.484987	-0.483473	0.573472	1.3978	1.2004	0	0
0.09	2.53678	1.3832	-0.825118	0.693954	-0.713909	0.968218	0.0260272	0.0211359	-0.396377	0.37538	0.11399	0	0	-0.448029	-0.15513	-0.243544	0.213603	-0.0848566	0	0	-0.674579	0.166774	-0.0542989	0.893509	-0.668988	1.25787	1.05191	0.641403	0	0	0.460187	-0.493673	0.563409	1.41251	1.20296	0	0
0.1	2.69319	1.38066	-0.979585	0.692226	-0.707562	0.970492	0.00187721	-0.00504517	-0.4018	0.359894	0.114531	0	0	-0.478288	-0.127621	-0.227369	0.199612	-0.112464	0	0	-0.693279	0.152052	-0.0619174	0.874453	-0.686961	1.24494	1.08125	0.650073	0	0	0.447066	-0.494142	0.562179	1.42273	1.20489	0	0
0.11	2.68234	1.32894	-0.932842	0.690338	-0.699304	0.974443	-0.073883	0.0466774	-0.430438	0.286846	0.0808479	0	0	-0.523599	-0.18028	-0.22678	0.198969	-0.118996	0	0	-0.728674	0.201618	-0.0693512	0.85458	-0.694922	1.2332	1.1049	0.67848	0	0	0.424935	-0.501658	0.555405	1.43643	1.20825	0	0
0.12	2.68358	1.39171	-0.966713	0.694319	-0.695281	0.968017	0.0122229	-0.00201268	-0.388895	0.329591	0.110375	0	0	-0.471125	-0.130733	-0.226184	0.212196	-0.122214	0	0	-0.678785	0.151641	-0.0629238	0.785609	-0.710743	1.13206	1.14911	0.70856	0	0	0.411939	-0.505206	0.556359	1.44611	1.21145	0	0
0.13	2.51455	1.39901	-0.794971	0.697631	-0.689757	0.963442	0.0395055	0.0272969	-0.374353	0.312635	0.102351	0	0	-0.439313	-0.162868	-0.242423	0.240004	-0.102127	0	0	-0.65232	0.170601	-0.0580029	0.797037	-0.715517	1.18076	1.16524	0.702226	0	0	0.387965	-0.51687	0.547744	1.46212	1.2176	0	0
0.14	2.69761	1.39562	-0.973826	0.695792	-0.683715	0.965568	0.0121469	0.000529549	-0.379288	0.297955	0.0983577	0	0	-0.472659	-0.134828	-0.220791	0.223767	-0.129497	0	0	-0.672192	0.157386	-0.0780476	0.760738	-0.720168	1.1287	1.19539	0.719658	0	0	0.364341	-0.52417	0.535013	1.47601	1.22176	0	0
0.15	2.48986	1.40825	-0.763399	0.699265	-0.677178	0.959989	0.0454796	0.03016	-0.367351	0.28055	0.0867012	0	0	-0.433712	-0.168526	-0.240953	0.25266	-0.103981	0	0	-0.637728	0.174502	-0.0658396	0.749916	-0.733711	1.15083	1.21957	0.719276	0	0	0.345177	-0.530603	0.535541	1.4867	1.23065	0	0
0.16	2.48157	1.41299	-0.7511	0.700128	-0.670604	0.957991	0.0462275	0.0309286	-0.366607	0.26295	0.076541	0	0	-0.433056	-0.170792	-0.237168	0.256485	-0.105096	0	0	-0.63132	0.175307	-0.0666552	0.712855	-0.746662	1.11652	1.25185	0.737794	0	0	0.326535	-0.536322	0.53315	1.49996	1.23759	0	0
0.17	2.46803	1.41919	-0.733074	0.701055	-0.663852	0.955725	0.04683	0.0315983	-0.366871	0.242342	0.0666125	0	0	-0.43096	-0.173065	-0.233166	0.259985	-0.106404	0	0	-0.62333	0.175575	-0.0675803	0.653667	-0.756475	1.04508	1.28715	0.765529	0	0	0.307941	-0.542065	0.531943	1.51412	1.24806	0	0
0.18	2.46245	1.42478	-0.723212	0.701927	-0.657143	0.953285	0.0453364	0.03146	-0.368724	0.220674	0.0509971	0	0	-0.43057	-0.174791	-0.231405	0.263192	-0.106795	0	0	-0.61604	0.176799	-0.07089	0.626821	-0.767482	1.03276	1.31546	0.766764	0	0	0.286084	-0.549064	0.527669	1.52852	1.25354	0	0
0.19	2.50654	1.38426	-0.730438	0.70088	-0.647323	0.955103	-0.0254719	0.0744052	-0.404798	0.147212	-0.0123663	0	0	-0.471981	-0.222484	-0.228506	0.258583	-0.110316	0	0	-0.638628	0.217878	-0.088345	0.62509	-0.771179	1.07055	1.32706	0.759832	0	0	0.256663	-0.559927	0.520725	1.54226	1.26007	0	0
0.2	2.50748	1.44883	-0.759521	0.704531	-0.643702	0.949026	0.0448483	0.0160508	-0.373426	0.183153	-0.0261318	0	0	-0.415071	-0.173147	-0.265388	0.288052	-0.108048	0	0	-0.596516	0.162959	-0.0882725	0.594701	-0.777598	1.04878	1.35209	0.774205	0	0	0.242431	-0.568019	0.522384	1.55318	1.26629	0	0
0.21	2.38205	1.45504	-0.630571	0.705814	-0.636715	0.944119	0.0599381	0.0227387	-0.377889	0.189195	-0.0366334	0	0	-0.411366	-0.176011	-0.22455	0.279479	-0.102589	0	0	-0.575453	0.171555	-0.0874795	0.571482	-0.788398	1.04643	1.3797	0.778417	0	0	0.219905	-0.575179	0.523173	1.56816	1.2692	0	0
0.22	2.34125	1.46178	-0.587263	0.707259	-0.630407	0.941224	0.0733945	0.0178391	-0.382209	0.219364	-0.00387663	0	0	-0.4057	-0.178183	-0.223402	0.286628	-0.100938	0	0	-0.565692	0.171533	-0.0880081	0.542571	-0.796089	1.03017	1.40674	0.792072	0	0	0.203055	-0.582993	0.526127	1.58143	1.27449	0	0
0.23	2.31372	1.46268	-0.556479	0.70835	-0.624477	0.939259	0.084626	0.0147593	-0.391954	0.254634	0.0277173	0	0	-0.404296	-0.183404	-0.220207	0.293625	-0.103621	0	0	-0.562901	0.175998	-0.0855298	0.509203	-0.804952	1.00323	1.43616	0.817742	0	0	0.189687	-0.587968	0.529041	1.59067	1.28241	0	0
0.24	2.58386	1.456	-0.825548	0.706524	-0.61843	0.941926	0.0614015	-0.00946276	-0.402553	0.286276	0.0478849	0	0	-0.445141	-0.161019	-0.199838	0.274107	-0.134337	0	0	-0.593666	0.169759	-0.0882739	0.458631	-0.812384	0.938867	1.47068	0.838412	0	0	0.175963	-0.587318	0.525908	1.5971	1.28968	0	0
0.25	2.21009	1.4436	-0.458119	0.711939	-0.614988	0.938612	0.115451	0.0122075	-0.485821	0.344011	0.0580852	0	0	-0.403246	-0.21246	-0.231096	0.31485	-0.114901	0	0	-0.576393	0.200722	-0.0593481	0.450666	-0.823569	0.948195	1.49506	0.850573	0	0	0.162454	-0.591135	0.521214	1.60274	1.31358	0	0
0.26	2.27783	1.44663	-0.518038	0.711494	-0.6082	0.937442	0.0996324	0.0269257	-0.384149	0.331914	0.0646339	0	0	-0.411455	-0.20868	-0.217032	0.317239	-0.126526	0	0	-0.580901	0.201589	-0.0661686	0.408142	-0.828884	0.91145	1.52187	0.86429	0	0	0.140554	-0.594861	0.516575	1.61188	1.32334	0	0
